<svg version="1.1" xmlns="http://www.w3.org/2000/svg" viewBox="0 0 1099.0129393458365 679.5" width="3297.0388180375094"
  height="2038.5">
  <!-- svg-source:excalidraw -->

  <defs>
    <style>
      @font-face {
        font-family: "Virgil";
        src: url("https://excalidraw.com/Virgil.woff2");
      }

      @font-face {
        font-family: "Cascadia";
        src: url("https://excalidraw.com/Cascadia.woff2");
      }
    </style>
  </defs>
  <rect x="0" y="0" width="1099.0129393458365" height="679.5" fill="#ffffff"></rect>
  <g stroke-linecap="round" transform="translate(81.54699318073676 108) rotate(0 99 16.5)">
    <path
      d="M0 0 C0 0, 0 0, 0 0 M0 0 C0 0, 0 0, 0 0 M-0.05 6.3 C0.75 5.66, 1.5 3.64, 5.41 0.58 M0.08 6.01 C1.2 4.84, 2.57 3.57, 4.73 0.6 M-1.37 10.66 C4.02 7.36, 6.83 5.93, 11.52 1.56 M0.02 12.33 C2.59 9.08, 4.72 6.45, 9.97 0.37 M-0.91 20.14 C3.51 13.52, 9.95 6.32, 15.86 1.95 M-1.05 18.81 C5.12 12.35, 9.42 7.76, 16.56 0.66 M2.13 23.72 C3.78 18.99, 11.53 12.25, 22.42 -1.3 M0.75 24.36 C5.12 17.6, 10.3 11.63, 22.07 -0.32 M-0.63 30.99 C10.22 21.22, 18.34 9.65, 24.68 0.28 M-0.5 31.01 C9.33 20.62, 16 11.36, 25.8 0.17 M0.14 33.17 C13.01 22.45, 24.79 7.3, 30.5 0 M1.19 34.47 C7.6 26.87, 14.25 20.16, 32 -0.69 M6.55 32.93 C12.57 24.84, 21.28 18.21, 35.06 1.35 M6.54 33.43 C18.3 21.89, 28.39 11.98, 36.9 -0.15 M13.61 34.18 C18.46 25.87, 27.1 16.04, 42.25 0.87 M11.58 35.48 C23.22 22.12, 32.42 9.94, 43.43 0.1 M17.82 32.61 C24.48 25.67, 29.75 18.46, 49.45 1.2 M17.56 34.73 C26.89 25.3, 35.26 15.28, 48.47 1.02 M22.67 36.49 C33.85 21.71, 42.53 9.65, 52.84 -2.1 M22.93 34.71 C32.5 24.23, 41.06 13.5, 53.52 0.2 M27.3 34.27 C36.53 27.88, 42.77 18.13, 56.23 0.47 M27.34 35.05 C36.54 24.07, 46.01 13.68, 57.95 0.94 M34.58 35.85 C44.22 22.77, 53.14 13.27, 64.34 -0.74 M34.21 34.85 C46.38 21.36, 58.03 6.75, 63.7 0.23 M37.24 35.72 C46.45 25.65, 54.16 15.2, 67.67 -1.6 M38.18 34.92 C48.99 23.58, 57.7 11.78, 68.54 -0.18 M44.5 34.63 C51.55 26.87, 61.9 15.13, 75.74 -1.26 M44.21 33.56 C56.71 22.12, 66.35 8.46, 74.72 0.25 M48.86 34.59 C57.4 25.47, 62.02 17.17, 77.97 -1.2 M49.74 34.61 C60.08 23.67, 69.87 9.99, 80.26 -0.16 M53.47 35.76 C64.91 23.19, 77.76 7.32, 84.93 1.7 M54.49 34.46 C63.46 24.57, 70.53 16.14, 85.61 -1.22 M58.9 35.4 C72.78 20.96, 83.97 6.11, 89.2 0.09 M60.62 34.08 C67.36 27.01, 74.4 17.17, 90.91 0.12 M66.47 32.8 C74.22 22.49, 84.34 16.29, 94.68 -0.89 M66.44 34.09 C74.41 24.8, 83.33 16.04, 94.7 -0.19 M69.04 36.23 C82.79 21.8, 92.71 10.69, 101.38 1.29 M70.7 34.74 C81.93 21.17, 92.69 9.1, 101.12 -0.26 M74.36 35.87 C89.2 22.01, 98.08 6.66, 106.72 1.53 M76.23 34.97 C86.57 22.8, 96.03 10.4, 106.64 -0.24 M79.85 34.77 C88.78 26.39, 93.58 20.66, 110.39 0 M80.19 34.45 C88.76 27.08, 96.72 18.09, 111.28 0.72 M87.93 33.72 C94.25 27.1, 101.65 19.09, 114.98 1.86 M85.81 34.58 C95.89 22.2, 106.99 11.01, 116.68 1.26 M92.81 34.28 C99.72 23.03, 107.95 14.4, 122.06 -1.59 M92.57 34.54 C97.76 28.65, 103.4 21.63, 122.59 -0.95 M95.85 35.65 C105.33 25.64, 110.86 19.83, 126.29 2.34 M97.95 34.32 C105.71 24.43, 116 14.84, 126.36 1.14 M104.32 33.65 C110.82 25.86, 118.71 19.23, 134.09 1.33 M101.64 34.77 C112.71 23.54, 122.34 11.24, 132.04 -0.33 M106.73 33.6 C113.47 26.38, 119.81 18.55, 138.41 1.06 M107.22 34.58 C114.37 26.72, 121.56 19.14, 136.56 -0.06 M111.66 33.33 C121.67 23.35, 131.64 16.6, 142.1 -1.87 M112.46 34.38 C124.92 20.67, 136.46 7.54, 143.45 -0.55 M119.05 36.07 C130.84 20.23, 142.84 7.34, 148.67 -1.04 M118.97 33.68 C131.06 20.51, 142.45 6.58, 149.08 -0.09 M123.03 33.39 C137.5 19.37, 149.47 8.54, 153.63 0.79 M124.44 35.03 C130.91 25.59, 138.8 18.25, 154.39 0.26 M131.22 34.16 C135.55 28.22, 142.38 20.81, 159.3 -1.43 M128.36 34.9 C138.41 23.78, 147.6 13.18, 159.05 0.73 M135.54 35.48 C143.74 22.72, 155.52 6.66, 166.11 -2.1 M134.24 33.86 C140.83 27.95, 147.94 19.22, 165.25 -0.13 M139.54 35.58 C148.12 22.67, 159.64 11.48, 167.43 2 M139.32 33.47 C151.32 21.65, 163.18 9.23, 169.87 0.56 M145.2 32.83 C154.28 24.1, 165 11.76, 176.87 0.61 M144.83 34.45 C156.05 22.12, 168.5 7.34, 174.22 -0.96 M151.59 35.37 C156.78 28.17, 164.12 20.74, 179.11 0.97 M148.97 34.34 C160.97 22.08, 172.5 9.59, 180.25 0.99 M156.94 36.3 C161.29 28.43, 169.79 16.56, 185.18 0.7 M156.49 33.85 C164.03 25.69, 170.99 15.5, 186.28 0.47 M158.78 34.91 C168.57 25.02, 178.2 11.51, 191.29 -1.21 M161.15 34.13 C170.34 24.23, 181.18 12.65, 191.21 0.07 M166.56 36.31 C176.56 23.05, 182.76 14.45, 198.17 0.5 M165.79 33.53 C175.65 23.28, 184.31 12.31, 196.22 -0.18 M170.49 36.43 C179.13 25.34, 185 17.86, 200.51 1.86 M171.55 34.68 C182.49 23.2, 191.57 10.05, 199.72 0.83 M174.82 32.9 C186.68 23.23, 193.13 14.66, 201.69 7.29 M176.59 34.45 C182.73 26.9, 188.2 21.58, 200.38 8.99 M182.66 34.01 C185.77 29.36, 191.61 20.76, 199.66 11.75 M181.31 35.05 C186.63 28.84, 190.23 23.67, 200.52 14.27 M189.24 33.71 C191.43 30.04, 196.18 23.15, 200.6 18.15 M187.07 34.02 C192.29 29.32, 196.02 24.78, 200.08 20.02 M191.7 35.61 C195.46 31, 197.47 27.24, 199.25 25.5 M192.93 35.01 C194.82 32.45, 196.73 28.88, 199.84 26.2"
      stroke="#82c91e" stroke-width="0.5" fill="none"></path>
    <path
      d="M-1.91 -1.33 C57.72 -0.48, 118.63 -0.79, 196.42 -0.96 M0.36 0.01 C70.17 -1.63, 142.77 -1.11, 198.15 -0.86 M199.09 -1.68 C196.84 6.35, 196.02 12.61, 198.92 34.49 M197.91 0.28 C198.34 6.55, 197.21 13.69, 198.99 32.94 M196.9 31.88 C138.45 31.88, 78.94 32.68, 0.74 31.14 M197.2 32.15 C121.32 32.18, 43.61 32.1, -0.06 32.78 M1.95 34.74 C0.8 24.49, -1.64 17.01, 0.19 -0.06 M0.96 33.25 C-0.85 23.84, 0.01 12.53, 0.79 0.3"
      stroke="#000000" stroke-width="1" fill="none"></path>
  </g>
  <g transform="translate(86.54699318073676 113) rotate(0 94 11.5)"><text x="94" y="17"
      font-family="Virgil, Segoe UI Emoji" font-size="20px" fill="#000000" text-anchor="middle"
      style="white-space: pre;" direction="ltr">Document Request</text></g>
  <g stroke-linecap="round" transform="translate(283.04699318073676 150) rotate(0 169.5 16.5)">
    <path
      d="M0 0 C0 0, 0 0, 0 0 M0 0 C0 0, 0 0, 0 0 M0.54 6.39 C1.44 4.01, 4.07 2, 4.5 0.53 M0.06 6.17 C1.92 3.96, 4.12 1.57, 5.24 0.27 M1.24 12.71 C4.66 6.89, 7.05 2.73, 10.86 1.04 M-0.09 11.44 C2.5 9.35, 4.75 5.9, 10.13 -0.11 M0.63 16.84 C2.99 14.38, 5.36 10.91, 15.19 0.2 M-0.49 18.24 C5.6 13.06, 10.19 5.34, 15.76 -0.33 M-1.52 25.96 C9.29 15.29, 15.36 4.87, 21.69 -0.5 M-0.19 24.93 C5.61 17.66, 12.47 11.05, 21.58 -0.46 M-1.3 32.42 C11.31 21.37, 19.91 7.28, 28.21 0.38 M-0.36 31.43 C8.79 19.63, 18.99 7.59, 27.06 -0.41 M2.63 33.45 C11.55 22.6, 26.3 8.78, 31.35 -0.94 M2.09 33.64 C10.99 23.59, 22.54 11.32, 31.94 0.45 M5.69 34.64 C17.79 21.56, 25.94 11.95, 36.28 1 M7.85 35.02 C14.32 25.04, 22 18.22, 35.89 0.8 M10.4 32.83 C19.34 24.99, 25.65 17.91, 42.89 0.86 M12.37 34.84 C24.18 21.78, 35.84 8.15, 41.79 -0.22 M19.78 35.79 C26.3 22.16, 35.93 11.18, 47.46 0.64 M18.34 34.29 C28.54 22.4, 39.18 8.73, 47.54 0.49 M23.78 36.13 C35.23 22.5, 45.37 8.41, 52.89 1.68 M22.21 33.83 C35.78 21.56, 47.51 8.08, 53.3 0.48 M28.76 36.05 C36.7 21.35, 46.18 10.55, 58.37 -1.23 M28.78 34.29 C39.13 20.46, 52.26 8.93, 57.29 1.16 M34.53 33.69 C43.41 24.95, 52.66 13.94, 65.54 0.2 M34.3 34.68 C43.26 23.48, 51.29 13.41, 63.07 0.32 M37.24 35.46 C45.03 26.69, 54.17 17.18, 68.24 1.79 M38.53 34.84 C48.47 21.91, 60.45 10.46, 69.34 -0.42 M45 34.79 C51.51 25.49, 56.64 17.13, 74.62 -0.99 M44.31 33.72 C51.27 27.46, 57.53 19.8, 75.19 -1.14 M49.47 36.25 C60.63 20.88, 71.29 10.41, 80.9 0.99 M48.44 35.82 C56.56 28.11, 61.21 19.39, 79.88 -0.15 M54.14 33.59 C62.53 28.19, 67.14 19.37, 85.5 -1.39 M55.85 34.62 C63.31 25.52, 71.84 14.48, 84.16 0.46 M57.95 33.79 C67.22 26.5, 71.8 20.69, 90.77 -1.44 M60.47 35.13 C68.11 26.75, 75.48 17.72, 90.02 0.34 M63.5 35.16 C76.15 24.22, 85.01 10.6, 97.14 -0.6 M65.46 35.3 C76.09 23.74, 84.34 12.64, 95.97 -0.73 M68.76 35.36 C78.75 25.85, 88.2 18.03, 100.85 1.62 M70.03 34.51 C78.51 27.3, 84.61 19.77, 100.84 0.73 M75.21 33.48 C87.95 21.23, 100.34 9.05, 108.1 -0.31 M75.68 35.02 C83.11 25.53, 90.39 18.24, 107.04 0.25 M79.58 34.13 C89.65 23.25, 100.22 14.52, 112.75 0.17 M80.99 34.47 C92.21 22.64, 102.03 12.64, 110.37 0.99 M86 33.45 C92.81 27.99, 100.74 19.7, 117.87 -1.54 M85.95 35.31 C93.61 25.09, 100.32 17.3, 116.6 0.89 M93.7 35.21 C101.81 27.12, 106.96 14.01, 120.67 1.14 M92.68 35.31 C96.95 27.65, 104.21 19.93, 122.59 0.4 M97.2 32.85 C103.45 26.05, 113.52 15.89, 127.52 2.31 M97.72 34.99 C108.83 21.03, 121.28 8.18, 126.29 1.23 M101.98 33.58 C110.47 23.55, 119.71 14.25, 133.41 -1.66 M102.85 34.14 C110.99 26.53, 117.19 16.03, 132.44 0.53 M108.71 32.39 C118.1 21.48, 127.32 10.2, 137.72 0.02 M107.33 35.21 C115.56 27.3, 121.1 17.55, 137.26 -0.62 M112.9 36.15 C122.21 25.04, 130.97 14.02, 144.35 -1.48 M112.73 33.87 C125.78 20.84, 136 7.26, 142.8 0.24 M117.07 33.66 C128.6 22.68, 136.09 14.12, 149.41 1.53 M119.14 34.39 C131.21 20.23, 142.31 7.81, 147.72 -0.55 M122.49 35.73 C130.23 28.26, 138.7 18.4, 153.46 -0.7 M124.01 34.19 C133.83 23.02, 141.59 12.94, 153.53 0.68 M129.36 33.19 C137.95 24.29, 147.02 13.27, 157.12 0.69 M128.4 33.25 C140.12 20.55, 152.33 6.63, 159.39 -0.6 M132.43 33.03 C141.91 24.07, 150.94 16.43, 165.33 -0.77 M133.8 34.61 C143.74 23.02, 154.99 10.8, 164.41 0.33 M141.28 32.4 C151.95 22.39, 163.6 10.35, 170.97 1.23 M140.37 33.82 C145.39 26.8, 151.42 19.34, 170.4 -0.05 M143.95 34.69 C155.83 21.23, 163.79 12.14, 175.11 -0.24 M145.71 35.42 C153.1 25.51, 159.01 17.38, 174.19 -0.06 M150.49 36.35 C160.06 24.13, 169.67 11.12, 178.67 -1.19 M150.55 35.16 C158.54 24.05, 167.68 12.12, 180.36 -0.36 M155.9 35.21 C163.32 23.51, 171.85 15.18, 186.58 -0.75 M154.76 34.71 C163.55 26.44, 170.48 18.29, 185.57 -0.45 M161.16 36.78 C171.63 19.67, 183.46 8.36, 191.52 -1.01 M160.42 35.39 C167.76 25.22, 176.05 17.22, 191.32 -0.22 M166.7 35.04 C171.08 27.24, 178.09 21.03, 198.08 -1.04 M166.45 35.37 C175.7 22.01, 186.08 11.54, 196.22 -0.48 M170.13 34.57 C178.66 25.53, 188.98 11.65, 202.44 -0.77 M170.4 35.17 C178.2 25.9, 186.22 16.37, 200.78 -0.49 M176.39 34.52 C186.5 24.75, 191.99 15.81, 208.57 1.05 M177.71 34.08 C188.21 20.28, 200.37 7.74, 207.73 -0.51 M183.47 34.77 C192.47 23.2, 200.67 14.82, 211.92 -1.09 M181.53 35.7 C188.27 26.85, 195.34 20.03, 212.71 0.73 M188.58 35.89 C196.9 26.33, 201.78 13.74, 219.59 -1.4 M187.95 34.33 C196.12 24.66, 203.21 15.97, 216.66 -0.59 M193.84 33.32 C204.92 20.26, 213.91 10.15, 222.04 1.3 M191.82 34.5 C202.35 22.9, 214 11.74, 222.52 -0.83 M196.49 33.32 C206.41 25.14, 212.36 19.55, 229.27 1.6 M198.02 33.4 C207.85 24.4, 215.77 13.05, 227.54 0.52 M202.52 35.09 C211.26 26.56, 220.73 16.05, 234.49 -0.41 M203.22 34.37 C210.93 25.6, 219.13 14.07, 234.07 -0.65 M208.92 34.84 C219.61 24.29, 227.79 12.4, 237.68 -0.33 M209.21 33.36 C215.94 27.06, 222.03 18.31, 239.17 1.11 M213.35 35.84 C224.12 22.27, 235.05 9.82, 244.55 -1.13 M214.63 34.41 C220.41 28.17, 225.11 21.4, 244.68 -0.44 M220.29 32.44 C230.95 21.33, 242.4 6.8, 247.47 1.12 M220.29 34.08 C227.52 26.15, 232.93 18.35, 248.28 0.5 M222.78 36.23 C234.1 24.82, 239.96 14.73, 255.08 -1.87 M224.92 35 C234.08 23.18, 241.59 12.89, 254.12 0.92 M228.58 35.99 C238.48 25.18, 246.5 16.29, 257.9 -0.61 M230.46 34.24 C238.17 22.57, 248.27 11.88, 258.59 0.57 M233.85 35.84 C246.54 20.86, 255.78 12.88, 266.56 0.28 M235.88 34.86 C244.99 23.57, 253.28 12.92, 265.62 0.34 M241.38 35.25 C251.54 19.7, 261.51 7.36, 269.47 0.09 M240.39 34.3 C248.47 23.02, 258.98 13.75, 270.43 -0.23 M246.21 35.15 C254.07 23.96, 263.39 11.06, 275.03 -1.88 M245.29 33.95 C258.46 20.31, 269.62 7.48, 274.86 -0.49 M249.88 33.92 C264.43 18.98, 272.93 8.24, 281.29 -0.27 M251.19 33.53 C257.26 25.86, 265.04 16.88, 281.08 0.8 M258.07 33.54 C266.77 21.55, 279.54 9.44, 286.16 0.38 M255.85 34.59 C262.24 25.58, 269.82 18.59, 286.96 -0.07 M262.19 36.34 C268.89 28.63, 271.65 22.32, 293.07 -0.27 M260.77 35.73 C268.2 26.66, 277.31 16.97, 291.77 -0.3 M268.28 35.32 C273.99 24.47, 283.53 14.38, 297.18 1.67 M266.25 34.33 C277.13 22.9, 288.65 9.32, 297.51 -0.11 M272.01 34.5 C277.37 28.7, 287.49 18.65, 303.08 0.41 M271.47 35.26 C280.2 25.18, 286.33 16.54, 302.68 0.77 M278.23 35.68 C287.14 24.9, 297.21 10.18, 306.94 0.52 M278.11 35.08 C290.3 21.45, 302.47 7.11, 307.56 -0.5 M280.63 34.55 C287.6 28.41, 296.02 21.98, 314.22 -0.99 M283.11 34.53 C293.4 21.13, 306.29 8.32, 311.96 -0.36 M289.95 34.72 C296.96 22.93, 306.99 10.8, 317.87 1.36 M289 33.99 C295.75 26.23, 302.96 17.71, 318.58 -0.38 M293.62 35.81 C301.92 23.29, 310.18 16.94, 323.98 -0.34 M292.62 33.98 C298.66 28.43, 306.71 19.43, 322.7 0.22 M300.03 35.46 C310.24 18.94, 321.75 5.99, 329.99 0.55 M299.44 34.56 C308.82 22.46, 318.55 11.28, 329.52 -1.04 M302.13 33.48 C309.92 27.99, 317.87 16.89, 334.41 -0.6 M304.36 33.87 C315.09 21.38, 327.43 8.45, 333.93 -0.29 M309.68 33.82 C314.93 24.88, 322.69 16.08, 338.28 1.06 M309.94 33.55 C316.11 25.29, 323.09 17.26, 339.13 -0.25 M312.91 36.7 C324.18 23.63, 329.18 12.98, 340.94 4.23 M315.19 35.24 C321.68 26.94, 329.25 17.27, 338.42 5.65 M318.69 32.62 C325.77 30.5, 328.22 22.11, 338.75 11.64 M319.91 34.02 C326.48 25.72, 334.42 16.46, 339.06 11.83 M326.28 34.49 C327.71 31.44, 333.07 25.87, 340.84 18.99 M325.39 34.93 C329.62 30.34, 333.31 25.67, 340.11 18.86 M331.15 35.14 C331.93 32.04, 334.18 29.87, 338.44 24.82 M330.69 34.33 C333.96 31.46, 336.79 27.63, 338.7 24.15 M335.23 34.44 C337.19 33.59, 337.84 31.89, 338.78 30.71 M335.6 34.64 C336.65 33.08, 337.88 31.85, 338.77 30.95"
      stroke="#228be6" stroke-width="0.5" fill="none"></path>
    <path
      d="M0.83 0.93 C111.24 -0.21, 220.86 -0.85, 339.72 -0.83 M-0.21 0.55 C107.16 -0.83, 212.42 -0.55, 339.63 0.33 M340.87 0.65 C339.9 7.93, 339.03 18.45, 340.21 32.72 M339.1 -0.7 C338.96 9.47, 338.04 20.04, 339.42 32.74 M338.99 32.25 C259.33 30.74, 178.34 31.61, 0.41 33.7 M339.47 32.63 C206.83 32.93, 74.01 32.77, 0.18 33.35 M1.48 33.74 C0.84 23.27, -2.11 11.39, -1.25 -1.01 M0.88 32.72 C-0.02 22.24, 0.62 9.56, -0.13 -0.98"
      stroke="#000000" stroke-width="1" fill="none"></path>
  </g>
  <g transform="translate(288.04699318073676 155) rotate(0 164.5 11.5)"><text x="164.5" y="17"
      font-family="Virgil, Segoe UI Emoji" font-size="20px" fill="#000000" text-anchor="middle"
      style="white-space: pre;" direction="ltr">JavaScript Bundle</text></g>
  <g stroke-linecap="round" transform="translate(623.5469931807368 191.5) rotate(0 191 16.5)">
    <path
      d="M0 0 C0 0, 0 0, 0 0 M0 0 C0 0, 0 0, 0 0 M-0.52 7.18 C2.06 4.31, 4.5 1.39, 4.63 1.09 M-0.3 6.37 C1.51 4.58, 3.13 2.52, 5.34 0.11 M0.65 12.38 C2.23 9.27, 8.12 5.33, 11.22 -0.97 M-0.55 12.27 C2.14 9.09, 5.42 5.25, 9.97 0.41 M-1.32 17.51 C3.79 15, 7.82 12.53, 13.95 -1.5 M-0.61 19.18 C5.42 11.96, 12.37 3.77, 16.13 -0.42 M0.34 22.28 C4.05 19.72, 10.48 14.48, 19.46 0.43 M0.8 24.08 C7.85 15.1, 15.61 7.86, 21.1 0.2 M-1.65 29.07 C4.96 24.5, 12.62 15.02, 25.14 -0.35 M0.01 30.66 C6.34 22.75, 11.9 17.06, 25.87 0.4 M3.02 35.06 C12.22 23.97, 18.64 13.37, 31.17 -1.93 M2.16 34.46 C13.94 21.27, 26.36 7.59, 31.19 -1.1 M5.76 34.53 C14.91 23.08, 22.97 16.29, 37.47 1.37 M7.96 34.25 C18.92 21.65, 29.32 8.61, 36.57 0.18 M11.34 32.59 C18.81 24.43, 27.06 15.68, 41 -2.02 M12.24 33.83 C20.61 23.87, 29.86 13.93, 43.07 0.46 M18.33 35.81 C27.62 24.71, 36.96 14.01, 48.6 -0.02 M17.87 33.74 C27.01 22.26, 38.6 11.62, 48.47 0.81 M24.68 32.9 C32.88 23.12, 43.66 10.96, 54.31 -1.96 M23.7 34.11 C30.04 26.34, 37.4 17.92, 54.03 -0.87 M28.38 34.44 C39.92 21.45, 53.39 5.54, 56.14 -1.61 M28.64 35.37 C35.88 27.34, 41.49 19.96, 57.65 -0.81 M35.51 34.03 C46.73 21.59, 57.2 8.65, 65.41 1.71 M34.15 33.6 C40.07 27.81, 47.01 18.64, 64.65 0.66 M38.39 35.5 C47.99 22.59, 61.32 7.87, 67.58 0.12 M37.74 34.79 C48.95 22.14, 60.53 8.47, 68.96 0.14 M46.2 34.6 C54.35 20.34, 69.07 5.66, 75.5 0.06 M44.02 34.59 C55.84 22.62, 65.39 10.61, 73.82 -0.79 M47.79 33.93 C57.64 24.8, 67.47 11.9, 78.31 -0.73 M48.95 34.37 C55.47 26.76, 63.43 19.26, 79.05 -0.57 M55.02 35.86 C61.96 27.34, 66.75 21.24, 86.68 -2.27 M55.52 34.27 C63.52 24.39, 74.54 13.16, 85.71 0.41 M61.55 33.51 C68.17 28.22, 72.26 20.89, 89.66 -1.45 M60.01 35.18 C71.47 23.5, 80.52 10.08, 89.37 0.8 M66.16 35.63 C76.28 21.3, 87.22 9.08, 95.97 -1.04 M65.67 33.82 C74.11 25.03, 80.74 16.22, 94.8 0.35 M71.56 33.6 C81.24 19.93, 95.89 5.36, 98.83 -0.76 M70.96 34.74 C82.09 21.97, 93.92 9.2, 101.18 0.94 M75.71 34.32 C82.79 27.09, 89.9 18.65, 105.28 1.61 M75.27 35.37 C82.98 27.4, 88.96 19.27, 106.85 0.58 M82.62 35.18 C87.27 25.52, 95.54 18.83, 112.95 -0.77 M81.13 34.03 C88.06 26.24, 95.27 18.31, 110.51 0.48 M85.67 32.95 C97.17 20.28, 109.32 8.2, 114.78 -0.15 M85.93 34.98 C93.34 27.93, 99.29 19.71, 115.28 -0.18 M90.42 34.79 C102.6 22.39, 111.97 11.13, 123.05 -1 M92.15 34.47 C102.76 22.94, 113.81 10.23, 121.21 -0.98 M97.93 35.11 C106.12 25.83, 113.44 15.1, 127.52 -0.8 M97.06 33.7 C107.23 22.61, 117.28 11.79, 126.77 0.02 M103.57 34.59 C111 22.43, 121.52 11.05, 134.06 -0.38 M102.95 34.94 C109.65 26.37, 118.54 16.1, 131.91 0.09 M108.32 33.02 C115.2 25.99, 121.28 18.74, 139.47 -0.95 M108.85 34.5 C118.49 23.77, 127.43 12.38, 138.31 -0.17 M113.59 36.33 C122.68 23.91, 132.5 10.09, 142.81 0.77 M112.76 34.79 C120.16 26.46, 125.45 20.31, 143.06 0.21 M120.53 33.45 C126.5 23.37, 134.52 13.47, 148.18 -0.41 M119.32 33.32 C128.56 22.55, 140.18 9.06, 148.88 0.6 M124.88 35.34 C131.42 26.25, 137.09 17.55, 152.06 -1.3 M124.09 34.79 C131.99 24.85, 140.59 13.84, 153.88 -0.19 M128.21 35.81 C139.91 20.04, 151.65 7.25, 158.1 0.65 M129.24 34.04 C138.52 23.37, 147.07 12.56, 159.73 0.13 M132.78 34.56 C143.39 21.41, 157.36 7.6, 164.46 0.27 M133.76 34.18 C144.6 22.9, 154.6 11.72, 165.4 0.31 M140.86 34.06 C147.63 24.4, 159.32 14.37, 170.59 -0.38 M139.21 33.52 C150.92 20.83, 163.31 7.83, 169.4 -0.32 M145.52 34.52 C152.96 23.33, 161.84 13.91, 176.57 0.92 M143.9 33.67 C151.74 27.56, 158.31 20.51, 175.46 -0.93 M149.28 35.54 C158.14 26.67, 165.42 16.58, 181.9 1.5 M149.97 35.29 C159.52 23.5, 171.13 10.22, 180.75 0.95 M154.23 35.33 C166.98 22.44, 177.07 9.05, 184.85 -1.3 M154.9 34.39 C165.79 20.94, 176.08 10.47, 185.66 0.38 M162.11 35.9 C169.18 27.52, 176.5 17.4, 189.21 0.87 M160 35.61 C171.6 24.03, 179.77 11.98, 189.93 1.11 M166.96 34.71 C174.41 24.73, 181.95 14.67, 195.68 0.25 M166.48 34.96 C173.23 26.02, 182.1 17.41, 196.43 0.53 M171.95 33.66 C178.65 26.96, 184.75 18.53, 200.59 -0.07 M170.65 34.92 C181.93 22.2, 194.1 8.73, 201.37 -0.22 M178.66 33.97 C183.37 28.79, 190.04 18.42, 207.32 -1.21 M176.65 34.41 C186.54 22.65, 197.58 12.68, 206 -1.28 M179.94 33.17 C189.95 27.38, 195.53 20.25, 213.03 -1.55 M181.68 33.87 C190.71 25.02, 200.51 14.21, 212.82 0.01 M189.18 36.01 C194.18 24, 203.45 15.34, 215.98 0.15 M186.7 35.26 C193.64 26.46, 200.88 19.1, 217.36 0.12 M193.14 35.39 C201.38 24.96, 208.03 13.09, 222.4 -0.21 M191.67 35.09 C198.97 27.2, 207.61 17.08, 222.32 -0.65 M197.28 35.33 C205.51 27.04, 212.01 19.94, 229.73 0.75 M198.25 34.46 C209.82 20.85, 220.74 8.88, 227.34 -1.14 M202.53 35.86 C215.67 20.49, 227.7 7.17, 233.5 0.93 M203 34.12 C213.42 22.99, 222.05 11.23, 233.19 0.75 M210.64 36.01 C218.8 25.21, 228.57 10.47, 237.92 2.35 M208.17 34.43 C214.93 28.1, 222 19.95, 238.87 -0.23 M212.97 34.71 C223 20.73, 236.36 9.94, 242.03 -1.59 M212.84 34.48 C224.11 21.76, 235.14 9.75, 243.07 -0.35 M219.83 33.74 C226.5 26.8, 230.95 19.32, 247.77 -0.95 M219.67 34.03 C229.95 21.42, 240.02 10.49, 248.69 0.37 M225.24 34.67 C234.76 24.74, 242.93 10.25, 252.61 -1.6 M224.14 34.64 C234.19 22.1, 245.66 11.66, 254.89 -1.07 M228.32 33.79 C238.54 25.16, 244.14 18.93, 258.42 -0.2 M229.24 33.59 C236.43 25.16, 244.33 17.5, 260.33 0.4 M234.03 35.07 C242.49 23.34, 253.39 12.11, 264.73 -1.36 M234.68 35.02 C246.88 20.63, 259.86 6.19, 265.87 -0.08 M242.52 33.04 C246.21 26.78, 254.24 17.35, 269.59 -0.61 M239.66 33.87 C248.28 24.73, 255.47 16.17, 269.79 -0.21 M245.92 33.82 C254.79 23.24, 266.66 11.39, 274.82 -1.53 M246.02 34.99 C253.05 27.22, 257.93 19.39, 276.53 -0.59 M249.7 33.95 C261.09 23.13, 267.95 14.53, 278.9 1.22 M251.01 35.1 C259.28 24.98, 265.92 17.44, 279.87 0.43 M257.41 33.43 C265.87 26.8, 274.13 14.01, 286.21 0.81 M256.5 33.88 C267.77 20.77, 279.76 6.75, 285.69 0.65 M259.41 35.33 C270.62 27.09, 279.44 16.75, 291.88 -0.75 M261.03 34.71 C273.78 21.51, 285.77 6.51, 291.16 1.16 M264.91 35.02 C275.6 26.02, 284.79 17.61, 295.11 -1.79 M266.3 33.96 C277 21.84, 286.28 10.75, 297.46 0.31 M272.08 35.33 C280.57 22.34, 289.01 12.5, 303.97 0.07 M272.7 35.32 C281.18 23.26, 291.41 13.18, 301.04 0.78 M278.72 36.27 C285.47 26.12, 296.09 15.42, 308.69 -1.23 M278.35 33.48 C286.21 22.61, 295.45 11.88, 308.27 -0.44 M281.06 33.95 C294.98 22.48, 303.2 12.76, 314.5 0.84 M283.33 34.27 C295.4 21.23, 307.22 6.38, 312.7 1.04 M289.06 33.49 C298.69 24.47, 307.15 12.81, 318.96 0.22 M287.4 33.61 C295.21 27.94, 301.85 18.89, 317.8 -1.01 M293.26 36.02 C304.64 23.8, 313.48 9.09, 324.73 -0.68 M292.21 35.6 C300.87 25.04, 307.69 17.56, 324.13 -0.37 M300.05 35.55 C305.99 25.93, 309.41 18.05, 328.89 -0.15 M299.01 33.5 C306.59 27.12, 312.29 18.2, 328.08 -0.35 M302.51 33.97 C312.67 21.22, 325.08 9.93, 335.79 -0.14 M302.89 33.81 C310.19 26.71, 318.42 18.18, 333.1 -0.78 M307.72 33.94 C320.57 20.39, 328.83 10.56, 338.33 0.58 M308.51 35.24 C319.23 23.02, 328.14 12.4, 340.4 0.05 M315.55 33.84 C325.86 20.28, 337.24 8.01, 342.77 -0.57 M314.25 34.82 C325.97 22.31, 336.87 9.58, 344.19 0.41 M318 32.73 C324.97 27.96, 333.22 19.33, 349.39 1.66 M320.03 34.87 C329.91 23.26, 341.81 10.27, 349.71 -0.09 M326 33.25 C333.96 23.48, 343.58 14.24, 356.61 1.55 M325.45 35.05 C337.41 20.86, 347.85 8.37, 355.77 0.76 M328.73 34.59 C335.9 26.93, 347.09 16.35, 359.04 1.65 M331.52 33.38 C343.12 20.41, 354.46 7.42, 360.21 0.12 M336.42 35.41 C349.07 23.28, 358.51 9.29, 366.19 -1.63 M334.94 34.33 C345.32 23.38, 353.74 14.19, 365.01 -0.21 M339.67 34.78 C351.28 23.13, 358.53 13.84, 369.21 1.01 M341.71 33.74 C353.44 20.02, 364.1 6.38, 370.45 0.31 M344.25 35.12 C356.83 21.17, 369.26 5.91, 376.28 0.61 M345.47 34.98 C355.06 25.97, 362.31 16.16, 376.87 -0.04 M350.45 35.15 C360.88 23.88, 367.6 17.24, 379.38 1 M351.13 33.85 C362.06 22.23, 371.88 11.62, 380.9 0.79 M355.85 32.8 C365.46 25.9, 369.57 19.49, 383.62 1.87 M357.11 34.74 C364.34 25.21, 371.04 17.34, 385.17 1.95 M362.65 34.16 C369.98 28.08, 372.7 19.53, 384.71 6.8 M363.09 33.56 C367.22 28.61, 373.66 21.24, 385.15 8.65 M368.48 36.43 C375.71 27.58, 380.06 18.71, 383.56 16.36 M368.2 33.84 C371.42 31.55, 374.08 26.9, 384.22 15.45 M373.03 33.66 C375.98 31.02, 380.22 26.69, 384.47 20.36 M372.1 34.47 C377.23 29.78, 380.36 24.54, 385.2 21.52 M377.2 35.06 C380.05 31.24, 383.2 29.58, 385.55 27.12 M378.24 34.22 C379.73 32.09, 382.51 30.34, 384.45 26.71"
      stroke="#fa5252" stroke-width="0.5" fill="none"></path>
    <path
      d="M0.78 0.17 C123.87 1.8, 248.74 1.55, 381.34 -0.61 M0.44 0.18 C145.53 1, 290.03 1.17, 381.75 -0.45 M381.37 -0.4 C381.04 6.39, 379.94 14.82, 381.15 32.68 M382.71 0.18 C383.2 9.99, 382.1 21.76, 382.17 33.45 M380.9 34.1 C260.97 30.02, 141.1 31.47, 0.78 33.22 M381.87 32.68 C230.91 33.52, 79.62 33.97, -0.12 32.54 M-1.59 32 C-0.03 24.8, 0.1 16.41, 1.37 1.18 M0.18 33.37 C-0.32 20.79, -0.51 9.26, -0.95 -0.54"
      stroke="#000000" stroke-width="1" fill="none"></path>
  </g>
  <g transform="translate(628.5469931807368 196.5) rotate(0 186 11.5)"><text x="186" y="17"
      font-family="Virgil, Segoe UI Emoji" font-size="20px" fill="#000000" text-anchor="middle"
      style="white-space: pre;" direction="ltr">Slow Data</text></g>
  <g transform="translate(85.54699318073676 10) rotate(0 229 22.5)"><text x="0" y="32"
      font-family="Virgil, Segoe UI Emoji" font-size="36px" fill="#000000" text-anchor="start" style="white-space: pre;"
      direction="ltr">Client Side Data Fetching</text></g>
  <g stroke-linecap="round" transform="translate(234.04699318073676 205) rotate(0 51.5 52.5)">
    <path
      d="M0 53 C0 53, 0 53, 0 53 M0 53 C0 53, 0 53, 0 53 M4.74 56.47 C19.54 37.62, 38.19 19.41, 47.49 4 M3.54 55.36 C14.33 42.5, 27.34 28.46, 45.36 5.22 M5.77 59.88 C22.56 39.21, 40.55 20.35, 53.61 1.01 M4.62 58.85 C18.71 43.76, 33.91 25.43, 53.88 2.4 M10.16 61.89 C22.48 45, 35.79 29.79, 57.2 3.25 M7.61 60.86 C22.22 48.09, 35.43 32.28, 58.35 4.45 M11.35 66.1 C26.61 46.22, 42.32 28.33, 61.54 9.81 M11.62 64.76 C24.63 48.3, 40.02 30.08, 59.09 7.92 M14.17 67.02 C29.87 48.76, 46.77 30.39, 61.79 9.75 M14.7 65.94 C24.31 55.07, 36.71 41.38, 63.72 10.14 M16.45 71.55 C36.56 48.74, 54.58 30.27, 67.24 14.61 M17.54 70.83 C31.36 54.02, 46.68 35.5, 66.46 14.21 M20.59 74.11 C37.51 55.9, 52.49 35.94, 70.22 16.28 M20.14 72.34 C35.43 57.09, 49.5 40.54, 69.17 16.17 M24.55 77.17 C35.47 62.59, 45.78 46.9, 72.99 18.7 M22.92 75.82 C42.47 54.22, 60.67 31.12, 71.33 19.25 M24.78 79.08 C36.06 64.5, 48.19 52.97, 74.77 22.56 M24.7 79.33 C39.35 63.28, 53.12 46.57, 75.13 21.79 M29.1 79.84 C38.26 69.54, 49.38 55.54, 78.62 25.01 M27.67 80.78 C42.38 65.71, 56.55 51.49, 77.48 25.54 M29.71 83.72 C44.66 71.15, 57.39 55.84, 80.36 29.51 M31.57 84.99 C50.46 63.36, 68.86 40.85, 79 28.79 M32.76 88.29 C45.67 72.31, 59.51 58.35, 81.57 32.38 M35.25 86.06 C44.05 74.52, 55.8 64.19, 82.13 31.4 M37.97 92 C48.33 74.6, 58.87 63.31, 86.48 32.64 M37.45 89.44 C48.95 74.71, 61.13 60.69, 86.11 34 M40.17 91.21 C56.84 72.62, 76.95 51.12, 88.9 35.8 M40.45 92.31 C52.72 77.33, 65.63 63.29, 88.99 36.19 M42.36 94.79 C59.88 74.66, 74.57 57.02, 90.54 39.17 M42.12 94.6 C60.11 74.51, 79.83 53.29, 90.08 39.3 M45.19 97.17 C60.35 80.15, 75.52 64.63, 95.22 43.93 M45.65 97.45 C57.06 85.06, 68.93 70.81, 93.2 42.81 M46.66 101.88 C60.95 85.66, 72.82 71.1, 95.2 44.45 M48.18 101.19 C60.98 85.61, 74.63 70.07, 97.15 45.12 M51.64 102.65 C67.62 83.87, 83.95 64.82, 98.09 48.08 M50.54 103.76 C69.12 82.5, 86.66 62.73, 99.68 49.72 M52.87 105.94 C66.56 89.8, 79.68 75.11, 103.76 52.98 M53.3 105.72 C65.72 93.32, 77.98 77.78, 102.52 52.43"
      stroke="#be4bdb" stroke-width="0.5" fill="none"></path>
    <path
      d="M52.03 -0.06 C65.29 13.43, 80.89 28.91, 101.04 52.56 M51.57 0.22 C68.45 17.58, 85.56 34.18, 102.99 53.92 M101.94 52.97 C83.81 72.07, 61.72 93.02, 53.49 106.71 M103.92 52.79 C89.17 65.4, 77.15 78.93, 52.97 105.03 M52.12 106.11 C39.64 93.39, 24.78 77.3, 0.86 54.7 M52.79 105.22 C37.88 91.5, 23.4 76.81, -0.24 52.68 M-1.91 52.06 C15.01 40.52, 28.04 24.37, 51.09 1.93 M0.01 52.13 C14.53 37.62, 30.78 21.74, 52.75 0.64"
      stroke="#000000" stroke-width="1" fill="none"></path>
  </g>
  <g transform="translate(239.04699318073676 234.5) rotate(0 46.5 23)"><text x="46.5" y="17"
      font-family="Virgil, Segoe UI Emoji" font-size="20px" fill="#000000" text-anchor="middle"
      style="white-space: pre;" direction="ltr">First</text><text x="46.5" y="40" font-family="Virgil, Segoe UI Emoji"
      font-size="20px" fill="#000000" text-anchor="middle" style="white-space: pre;" direction="ltr">Paint</text></g>
  <g stroke-linecap="round" transform="translate(952.0469931807368 233.5) rotate(0 51.5 52.5)">
    <path
      d="M0 53 C0 53, 0 53, 0 53 M0 53 C0 53, 0 53, 0 53 M2.59 56.29 C17.37 37.4, 31.78 22.49, 47.28 6.47 M2.53 54.9 C11.91 44.27, 21.36 34.61, 46.91 5.03 M5.89 60.19 C25.58 36.54, 43.34 18.2, 54 3.83 M5.42 59.78 C22.67 38.35, 41.72 17.22, 54.62 3.21 M9.59 62.34 C23.65 47.25, 35.95 29.23, 56.92 6.89 M8.09 62.23 C20.47 47.49, 32.46 34.44, 56.62 4.82 M9.53 63.71 C26.29 44.65, 44.82 27.16, 59.87 8.88 M10.66 63.97 C25.46 45.9, 42.43 29.44, 59.67 7.88 M15.59 68.44 C24.19 53.16, 35.01 40.08, 63.27 11.33 M15.34 66.13 C26.52 53.74, 38.07 39.86, 63.96 11.53 M15.34 71.42 C29.37 53.25, 43.65 38.23, 64.33 14.59 M17.16 71.2 C27.82 58.9, 38.19 45.97, 65.45 14.03 M19.62 71.35 C36.27 54.63, 50.31 37.11, 68.02 17.6 M19.61 73.48 C37.99 50.56, 58.08 28.7, 67.9 16.93 M23.51 77.29 C43.54 51.12, 62.95 32.42, 71.9 19.76 M22.74 76.09 C35.11 60.18, 48.12 44.26, 71.82 20.27 M23.29 78.49 C41.04 63.45, 55.69 45.68, 75.19 23.44 M26.17 78.16 C41.62 61.21, 57.38 42.64, 74.62 21.61 M27.25 80.19 C44.43 61.41, 61.7 44.42, 75.63 23.84 M29.05 81.06 C42.65 63.98, 59.41 45.89, 77.57 25.22 M30.8 84.19 C47.19 66.1, 62.47 44.74, 80.43 28.75 M31.23 84.36 C41.08 72.13, 52.33 60.27, 79.79 28.25 M35.94 87.9 C45.23 72.24, 60.75 57.99, 81.21 31.18 M33.82 87.32 C44.42 74.32, 54.78 62.91, 83.41 30.79 M36.97 89.93 C54.83 71.64, 67.34 51.6, 84.96 33.1 M37 89.83 C56.3 68.01, 75.52 46.6, 85.49 34.04 M39.97 93.1 C50.54 77.77, 65.33 66.03, 86.92 35.3 M40.6 91.89 C51.79 78.09, 62.38 65.41, 89.07 37.48 M41.85 97.08 C52.87 83.58, 65.95 67.59, 90.93 40.69 M43.25 95.6 C54.14 82.45, 64.95 69.01, 90.6 40.72 M45.91 97.38 C62.49 81.08, 77.89 63.43, 93.62 44.36 M45.01 98.58 C61.95 80.86, 75.93 62.73, 94.19 42.81 M47.45 102.95 C67.37 82.66, 85.72 58.09, 96.74 44.9 M47.1 101.01 C60.26 88.78, 71.49 75.47, 97.11 46.08 M49.33 103.24 C66.49 85.14, 79.89 66.68, 100.1 50.2 M50.53 105 C68.75 82.86, 86.9 61.88, 98.71 49.33 M52.99 104.74 C66.15 92.01, 83.07 73.26, 100.43 53.26 M53.23 106.68 C68.13 90.01, 83.62 72.86, 102.49 51.98"
      stroke="#be4bdb" stroke-width="0.5" fill="none"></path>
    <path
      d="M51.47 -1.03 C65.06 13.62, 76.97 26.29, 103.21 54.46 M52.72 -0.6 C70.85 19.99, 89.66 40.32, 102.07 53.9 M103.9 51.44 C81.96 72.45, 66.73 91.87, 50.98 106.11 M102.37 52.73 C82.92 73.13, 63.68 92.53, 52.35 105.17 M52.1 103.64 C34.27 88.29, 16.39 71.69, 1.9 53.95 M51.66 104.25 C36.15 88.08, 19.1 70.5, -1 52.36 M-1.46 54.05 C13.17 41.39, 22.34 30.87, 51.05 -0.01 M0.65 53.24 C13.58 39.34, 29.48 23.96, 52.09 -0.01"
      stroke="#000000" stroke-width="1" fill="none"></path>
  </g>
  <g transform="translate(957.0469931807368 274) rotate(0 46.5 11.5)"><text x="46.5" y="17"
      font-family="Virgil, Segoe UI Emoji" font-size="20px" fill="#000000" text-anchor="middle"
      style="white-space: pre;" direction="ltr">LCP</text></g>
</svg>